<mxfile host="app.diagrams.net" agent="Mozilla/5.0 (Windows NT 10.0; Win64; x64) AppleWebKit/537.36 (KHTML, like Gecko) Chrome/130.0.0.0 YaBrowser/24.12.0.0 Safari/537.36" version="25.0.3" pages="2">
  <diagram name="Страница — 1" id="PyMpWMepZyVTUPDUGVFV">
    <mxGraphModel dx="1290" dy="575" grid="1" gridSize="10" guides="1" tooltips="1" connect="1" arrows="1" fold="1" page="1" pageScale="1" pageWidth="827" pageHeight="1169" math="0" shadow="0">
      <root>
        <mxCell id="0" />
        <mxCell id="1" parent="0" />
        <mxCell id="2s4lg78nbPU-SRb5Kpki-2" style="edgeStyle=orthogonalEdgeStyle;rounded=0;orthogonalLoop=1;jettySize=auto;html=1;" edge="1" parent="1" source="2s4lg78nbPU-SRb5Kpki-1" target="2s4lg78nbPU-SRb5Kpki-3">
          <mxGeometry relative="1" as="geometry">
            <mxPoint x="110" y="80" as="targetPoint" />
          </mxGeometry>
        </mxCell>
        <mxCell id="2s4lg78nbPU-SRb5Kpki-1" value="начало&lt;div&gt;sortarr&lt;/div&gt;" style="ellipse;whiteSpace=wrap;html=1;" vertex="1" parent="1">
          <mxGeometry x="40" width="140" height="50" as="geometry" />
        </mxCell>
        <mxCell id="2s4lg78nbPU-SRb5Kpki-4" style="edgeStyle=orthogonalEdgeStyle;rounded=0;orthogonalLoop=1;jettySize=auto;html=1;" edge="1" parent="1" source="2s4lg78nbPU-SRb5Kpki-3" target="2s4lg78nbPU-SRb5Kpki-5">
          <mxGeometry relative="1" as="geometry">
            <mxPoint x="110" y="150" as="targetPoint" />
          </mxGeometry>
        </mxCell>
        <mxCell id="2s4lg78nbPU-SRb5Kpki-3" value="arr,n,comparator" style="shape=parallelogram;perimeter=parallelogramPerimeter;whiteSpace=wrap;html=1;fixedSize=1;" vertex="1" parent="1">
          <mxGeometry x="40" y="70" width="140" height="50" as="geometry" />
        </mxCell>
        <mxCell id="2s4lg78nbPU-SRb5Kpki-6" style="edgeStyle=orthogonalEdgeStyle;rounded=0;orthogonalLoop=1;jettySize=auto;html=1;" edge="1" parent="1" source="2s4lg78nbPU-SRb5Kpki-5" target="2s4lg78nbPU-SRb5Kpki-7">
          <mxGeometry relative="1" as="geometry">
            <mxPoint x="110" y="210" as="targetPoint" />
          </mxGeometry>
        </mxCell>
        <mxCell id="2s4lg78nbPU-SRb5Kpki-5" value="i:=2" style="rounded=0;whiteSpace=wrap;html=1;" vertex="1" parent="1">
          <mxGeometry x="40" y="140" width="140" height="40" as="geometry" />
        </mxCell>
        <mxCell id="2s4lg78nbPU-SRb5Kpki-8" style="edgeStyle=orthogonalEdgeStyle;rounded=0;orthogonalLoop=1;jettySize=auto;html=1;" edge="1" parent="1" source="2s4lg78nbPU-SRb5Kpki-7" target="2s4lg78nbPU-SRb5Kpki-9">
          <mxGeometry relative="1" as="geometry">
            <mxPoint x="110" y="280" as="targetPoint" />
          </mxGeometry>
        </mxCell>
        <mxCell id="2s4lg78nbPU-SRb5Kpki-7" value="Цикл 1&lt;div&gt;i&amp;gt;n&lt;/div&gt;" style="shape=loopLimit;whiteSpace=wrap;html=1;" vertex="1" parent="1">
          <mxGeometry x="40" y="200" width="140" height="50" as="geometry" />
        </mxCell>
        <mxCell id="2s4lg78nbPU-SRb5Kpki-10" style="edgeStyle=orthogonalEdgeStyle;rounded=0;orthogonalLoop=1;jettySize=auto;html=1;" edge="1" parent="1" source="2s4lg78nbPU-SRb5Kpki-9" target="2s4lg78nbPU-SRb5Kpki-11">
          <mxGeometry relative="1" as="geometry">
            <mxPoint x="110" y="350" as="targetPoint" />
          </mxGeometry>
        </mxCell>
        <mxCell id="2s4lg78nbPU-SRb5Kpki-9" value="key:=arr[i]&lt;div&gt;j:=i-1&lt;/div&gt;" style="rounded=0;whiteSpace=wrap;html=1;" vertex="1" parent="1">
          <mxGeometry x="40" y="270" width="140" height="40" as="geometry" />
        </mxCell>
        <mxCell id="2s4lg78nbPU-SRb5Kpki-12" style="edgeStyle=orthogonalEdgeStyle;rounded=0;orthogonalLoop=1;jettySize=auto;html=1;" edge="1" parent="1" source="2s4lg78nbPU-SRb5Kpki-11" target="2s4lg78nbPU-SRb5Kpki-13">
          <mxGeometry relative="1" as="geometry">
            <mxPoint x="110" y="410" as="targetPoint" />
          </mxGeometry>
        </mxCell>
        <mxCell id="2s4lg78nbPU-SRb5Kpki-11" value="comp:=comparator&lt;div&gt;(arr[j],key)&lt;/div&gt;" style="shape=process;whiteSpace=wrap;html=1;backgroundOutline=1;" vertex="1" parent="1">
          <mxGeometry x="40" y="330" width="140" height="40" as="geometry" />
        </mxCell>
        <mxCell id="2s4lg78nbPU-SRb5Kpki-14" style="edgeStyle=orthogonalEdgeStyle;rounded=0;orthogonalLoop=1;jettySize=auto;html=1;" edge="1" parent="1" source="2s4lg78nbPU-SRb5Kpki-13" target="2s4lg78nbPU-SRb5Kpki-15">
          <mxGeometry relative="1" as="geometry">
            <mxPoint x="110" y="470" as="targetPoint" />
          </mxGeometry>
        </mxCell>
        <mxCell id="2s4lg78nbPU-SRb5Kpki-13" value="Цикл 2&lt;div&gt;(j&amp;lt;1) и comp=false&lt;/div&gt;" style="shape=loopLimit;whiteSpace=wrap;html=1;" vertex="1" parent="1">
          <mxGeometry x="40" y="390" width="140" height="50" as="geometry" />
        </mxCell>
        <mxCell id="2s4lg78nbPU-SRb5Kpki-16" style="edgeStyle=orthogonalEdgeStyle;rounded=0;orthogonalLoop=1;jettySize=auto;html=1;" edge="1" parent="1" source="2s4lg78nbPU-SRb5Kpki-15" target="2s4lg78nbPU-SRb5Kpki-17">
          <mxGeometry relative="1" as="geometry">
            <mxPoint x="110" y="540" as="targetPoint" />
          </mxGeometry>
        </mxCell>
        <mxCell id="2s4lg78nbPU-SRb5Kpki-15" value="arr[j+1]:=arr[j]&lt;div&gt;j:=j-1&lt;/div&gt;" style="rounded=0;whiteSpace=wrap;html=1;" vertex="1" parent="1">
          <mxGeometry x="40" y="460" width="140" height="50" as="geometry" />
        </mxCell>
        <mxCell id="2s4lg78nbPU-SRb5Kpki-18" style="edgeStyle=orthogonalEdgeStyle;rounded=0;orthogonalLoop=1;jettySize=auto;html=1;" edge="1" parent="1" source="2s4lg78nbPU-SRb5Kpki-17" target="2s4lg78nbPU-SRb5Kpki-19">
          <mxGeometry relative="1" as="geometry">
            <mxPoint x="110" y="600" as="targetPoint" />
          </mxGeometry>
        </mxCell>
        <mxCell id="2s4lg78nbPU-SRb5Kpki-17" value="Цикл 2" style="shape=loopLimit;whiteSpace=wrap;html=1;direction=west;" vertex="1" parent="1">
          <mxGeometry x="40" y="530" width="140" height="50" as="geometry" />
        </mxCell>
        <mxCell id="2s4lg78nbPU-SRb5Kpki-20" style="edgeStyle=orthogonalEdgeStyle;rounded=0;orthogonalLoop=1;jettySize=auto;html=1;" edge="1" parent="1" source="2s4lg78nbPU-SRb5Kpki-19" target="2s4lg78nbPU-SRb5Kpki-21">
          <mxGeometry relative="1" as="geometry">
            <mxPoint x="110" y="670" as="targetPoint" />
          </mxGeometry>
        </mxCell>
        <mxCell id="2s4lg78nbPU-SRb5Kpki-19" value="arr[j+1]:=key" style="rounded=0;whiteSpace=wrap;html=1;" vertex="1" parent="1">
          <mxGeometry x="40" y="600" width="140" height="50" as="geometry" />
        </mxCell>
        <mxCell id="2s4lg78nbPU-SRb5Kpki-22" style="edgeStyle=orthogonalEdgeStyle;rounded=0;orthogonalLoop=1;jettySize=auto;html=1;" edge="1" parent="1" source="2s4lg78nbPU-SRb5Kpki-21" target="2s4lg78nbPU-SRb5Kpki-23">
          <mxGeometry relative="1" as="geometry">
            <mxPoint x="110" y="750" as="targetPoint" />
          </mxGeometry>
        </mxCell>
        <mxCell id="2s4lg78nbPU-SRb5Kpki-21" value="Цикл 1" style="shape=loopLimit;whiteSpace=wrap;html=1;direction=west;" vertex="1" parent="1">
          <mxGeometry x="40" y="670" width="140" height="50" as="geometry" />
        </mxCell>
        <mxCell id="2s4lg78nbPU-SRb5Kpki-23" value="конец&lt;div&gt;sortarr&lt;/div&gt;" style="ellipse;whiteSpace=wrap;html=1;" vertex="1" parent="1">
          <mxGeometry x="40" y="750" width="140" height="50" as="geometry" />
        </mxCell>
        <mxCell id="2s4lg78nbPU-SRb5Kpki-25" value="" style="endArrow=none;dashed=1;html=1;rounded=0;" edge="1" parent="1" target="2s4lg78nbPU-SRb5Kpki-26">
          <mxGeometry width="50" height="50" relative="1" as="geometry">
            <mxPoint x="170" y="100" as="sourcePoint" />
            <mxPoint x="240" y="100" as="targetPoint" />
          </mxGeometry>
        </mxCell>
        <mxCell id="2s4lg78nbPU-SRb5Kpki-26" value="переменные для&lt;div&gt;процедуры,&lt;/div&gt;&lt;div&gt;по ссылке&lt;/div&gt;" style="strokeWidth=2;html=1;shape=mxgraph.flowchart.annotation_1;align=left;pointerEvents=1;" vertex="1" parent="1">
          <mxGeometry x="200" y="70" width="50" height="60" as="geometry" />
        </mxCell>
      </root>
    </mxGraphModel>
  </diagram>
  <diagram id="y1JmaS_A_npPrlfaJ-zo" name="Страница — 2">
    <mxGraphModel dx="1290" dy="575" grid="1" gridSize="10" guides="1" tooltips="1" connect="1" arrows="1" fold="1" page="1" pageScale="1" pageWidth="827" pageHeight="1169" math="0" shadow="0">
      <root>
        <mxCell id="0" />
        <mxCell id="1" parent="0" />
        <mxCell id="vtQYRXYWqlSxpDlvJYzd-1" style="edgeStyle=orthogonalEdgeStyle;rounded=0;orthogonalLoop=1;jettySize=auto;html=1;" edge="1" parent="1" source="vtQYRXYWqlSxpDlvJYzd-2" target="vtQYRXYWqlSxpDlvJYzd-4">
          <mxGeometry relative="1" as="geometry">
            <mxPoint x="410" y="80" as="targetPoint" />
          </mxGeometry>
        </mxCell>
        <mxCell id="vtQYRXYWqlSxpDlvJYzd-2" value="начало&lt;div&gt;countingSort&lt;/div&gt;" style="ellipse;whiteSpace=wrap;html=1;" vertex="1" parent="1">
          <mxGeometry x="340" width="140" height="50" as="geometry" />
        </mxCell>
        <mxCell id="vtQYRXYWqlSxpDlvJYzd-3" style="edgeStyle=orthogonalEdgeStyle;rounded=0;orthogonalLoop=1;jettySize=auto;html=1;" edge="1" parent="1" source="vtQYRXYWqlSxpDlvJYzd-4" target="vtQYRXYWqlSxpDlvJYzd-8">
          <mxGeometry relative="1" as="geometry">
            <mxPoint x="410" y="150" as="targetPoint" />
          </mxGeometry>
        </mxCell>
        <mxCell id="vtQYRXYWqlSxpDlvJYzd-4" value="arr,n,comparator" style="shape=parallelogram;perimeter=parallelogramPerimeter;whiteSpace=wrap;html=1;fixedSize=1;" vertex="1" parent="1">
          <mxGeometry x="340" y="70" width="140" height="50" as="geometry" />
        </mxCell>
        <mxCell id="vtQYRXYWqlSxpDlvJYzd-5" value="" style="endArrow=none;dashed=1;html=1;rounded=0;" edge="1" parent="1" target="vtQYRXYWqlSxpDlvJYzd-6">
          <mxGeometry width="50" height="50" relative="1" as="geometry">
            <mxPoint x="470" y="100" as="sourcePoint" />
            <mxPoint x="540" y="100" as="targetPoint" />
          </mxGeometry>
        </mxCell>
        <mxCell id="vtQYRXYWqlSxpDlvJYzd-6" value="переменные для&lt;div&gt;процедуры,&lt;/div&gt;&lt;div&gt;по ссылке&lt;/div&gt;" style="strokeWidth=2;html=1;shape=mxgraph.flowchart.annotation_1;align=left;pointerEvents=1;" vertex="1" parent="1">
          <mxGeometry x="500" y="70" width="50" height="60" as="geometry" />
        </mxCell>
        <mxCell id="vtQYRXYWqlSxpDlvJYzd-7" style="edgeStyle=orthogonalEdgeStyle;rounded=0;orthogonalLoop=1;jettySize=auto;html=1;" edge="1" parent="1" source="vtQYRXYWqlSxpDlvJYzd-8" target="vtQYRXYWqlSxpDlvJYzd-10">
          <mxGeometry relative="1" as="geometry">
            <mxPoint x="410" y="200" as="targetPoint" />
          </mxGeometry>
        </mxCell>
        <mxCell id="vtQYRXYWqlSxpDlvJYzd-8" value="i:=0" style="rounded=0;whiteSpace=wrap;html=1;" vertex="1" parent="1">
          <mxGeometry x="340" y="140" width="140" height="40" as="geometry" />
        </mxCell>
        <mxCell id="vtQYRXYWqlSxpDlvJYzd-9" style="edgeStyle=orthogonalEdgeStyle;rounded=0;orthogonalLoop=1;jettySize=auto;html=1;" edge="1" parent="1" source="vtQYRXYWqlSxpDlvJYzd-10" target="vtQYRXYWqlSxpDlvJYzd-11">
          <mxGeometry relative="1" as="geometry">
            <mxPoint x="410" y="270" as="targetPoint" />
          </mxGeometry>
        </mxCell>
        <mxCell id="vtQYRXYWqlSxpDlvJYzd-10" value="Цикл 1&lt;div&gt;i&amp;gt;9&lt;/div&gt;" style="shape=loopLimit;whiteSpace=wrap;html=1;" vertex="1" parent="1">
          <mxGeometry x="340" y="200" width="140" height="50" as="geometry" />
        </mxCell>
        <mxCell id="DKY8X3DPb_3WQCr15zzb-1" style="edgeStyle=orthogonalEdgeStyle;rounded=0;orthogonalLoop=1;jettySize=auto;html=1;" edge="1" parent="1" source="vtQYRXYWqlSxpDlvJYzd-11" target="DKY8X3DPb_3WQCr15zzb-3">
          <mxGeometry relative="1" as="geometry">
            <mxPoint x="410" y="330" as="targetPoint" />
          </mxGeometry>
        </mxCell>
        <mxCell id="vtQYRXYWqlSxpDlvJYzd-11" value="count[i]:=0&lt;div&gt;i+=1&lt;/div&gt;" style="rounded=0;whiteSpace=wrap;html=1;" vertex="1" parent="1">
          <mxGeometry x="340" y="270" width="140" height="40" as="geometry" />
        </mxCell>
        <mxCell id="DKY8X3DPb_3WQCr15zzb-4" style="edgeStyle=orthogonalEdgeStyle;rounded=0;orthogonalLoop=1;jettySize=auto;html=1;" edge="1" parent="1" source="DKY8X3DPb_3WQCr15zzb-3" target="DKY8X3DPb_3WQCr15zzb-5">
          <mxGeometry relative="1" as="geometry">
            <mxPoint x="410" y="400" as="targetPoint" />
          </mxGeometry>
        </mxCell>
        <mxCell id="DKY8X3DPb_3WQCr15zzb-3" value="Цикл 1" style="shape=loopLimit;whiteSpace=wrap;html=1;direction=west;" vertex="1" parent="1">
          <mxGeometry x="340" y="330" width="140" height="50" as="geometry" />
        </mxCell>
        <mxCell id="DKY8X3DPb_3WQCr15zzb-6" style="edgeStyle=orthogonalEdgeStyle;rounded=0;orthogonalLoop=1;jettySize=auto;html=1;" edge="1" parent="1" source="DKY8X3DPb_3WQCr15zzb-5" target="DKY8X3DPb_3WQCr15zzb-7">
          <mxGeometry relative="1" as="geometry">
            <mxPoint x="410" y="460" as="targetPoint" />
          </mxGeometry>
        </mxCell>
        <mxCell id="DKY8X3DPb_3WQCr15zzb-5" value="i:=1" style="rounded=0;whiteSpace=wrap;html=1;" vertex="1" parent="1">
          <mxGeometry x="340" y="400" width="140" height="40" as="geometry" />
        </mxCell>
        <mxCell id="DKY8X3DPb_3WQCr15zzb-8" style="edgeStyle=orthogonalEdgeStyle;rounded=0;orthogonalLoop=1;jettySize=auto;html=1;" edge="1" parent="1" source="DKY8X3DPb_3WQCr15zzb-7" target="DKY8X3DPb_3WQCr15zzb-12">
          <mxGeometry relative="1" as="geometry">
            <mxPoint x="410" y="530" as="targetPoint" />
          </mxGeometry>
        </mxCell>
        <mxCell id="DKY8X3DPb_3WQCr15zzb-7" value="Цикл 2&lt;div&gt;i&amp;gt;n&lt;/div&gt;" style="shape=loopLimit;whiteSpace=wrap;html=1;" vertex="1" parent="1">
          <mxGeometry x="340" y="460" width="140" height="50" as="geometry" />
        </mxCell>
        <mxCell id="DKY8X3DPb_3WQCr15zzb-13" style="edgeStyle=orthogonalEdgeStyle;rounded=0;orthogonalLoop=1;jettySize=auto;html=1;" edge="1" parent="1" source="DKY8X3DPb_3WQCr15zzb-12" target="DKY8X3DPb_3WQCr15zzb-14">
          <mxGeometry relative="1" as="geometry">
            <mxPoint x="410" y="590" as="targetPoint" />
          </mxGeometry>
        </mxCell>
        <mxCell id="DKY8X3DPb_3WQCr15zzb-12" value="count[(arr[i] div exp) mod 10] := count[(arr[i] div exp) mod 10] + 1&lt;div&gt;i+=1&lt;/div&gt;" style="rounded=0;whiteSpace=wrap;html=1;" vertex="1" parent="1">
          <mxGeometry x="340" y="520" width="140" height="60" as="geometry" />
        </mxCell>
        <mxCell id="DKY8X3DPb_3WQCr15zzb-15" style="edgeStyle=orthogonalEdgeStyle;rounded=0;orthogonalLoop=1;jettySize=auto;html=1;" edge="1" parent="1" source="DKY8X3DPb_3WQCr15zzb-14" target="DKY8X3DPb_3WQCr15zzb-16">
          <mxGeometry relative="1" as="geometry">
            <mxPoint x="410" y="660" as="targetPoint" />
          </mxGeometry>
        </mxCell>
        <mxCell id="DKY8X3DPb_3WQCr15zzb-14" value="Цикл 2" style="shape=loopLimit;whiteSpace=wrap;html=1;direction=west;" vertex="1" parent="1">
          <mxGeometry x="340" y="590" width="140" height="50" as="geometry" />
        </mxCell>
        <mxCell id="DKY8X3DPb_3WQCr15zzb-17" style="edgeStyle=orthogonalEdgeStyle;rounded=0;orthogonalLoop=1;jettySize=auto;html=1;" edge="1" parent="1" source="DKY8X3DPb_3WQCr15zzb-16" target="DKY8X3DPb_3WQCr15zzb-19">
          <mxGeometry relative="1" as="geometry">
            <mxPoint x="410" y="760" as="targetPoint" />
          </mxGeometry>
        </mxCell>
        <mxCell id="DKY8X3DPb_3WQCr15zzb-28" style="edgeStyle=orthogonalEdgeStyle;rounded=0;orthogonalLoop=1;jettySize=auto;html=1;" edge="1" parent="1" source="DKY8X3DPb_3WQCr15zzb-16" target="DKY8X3DPb_3WQCr15zzb-29">
          <mxGeometry relative="1" as="geometry">
            <mxPoint x="560" y="760" as="targetPoint" />
          </mxGeometry>
        </mxCell>
        <mxCell id="DKY8X3DPb_3WQCr15zzb-16" value="comparator(1, 0)" style="rhombus;whiteSpace=wrap;html=1;" vertex="1" parent="1">
          <mxGeometry x="340" y="660" width="140" height="80" as="geometry" />
        </mxCell>
        <mxCell id="DKY8X3DPb_3WQCr15zzb-20" style="edgeStyle=orthogonalEdgeStyle;rounded=0;orthogonalLoop=1;jettySize=auto;html=1;" edge="1" parent="1" source="DKY8X3DPb_3WQCr15zzb-19" target="DKY8X3DPb_3WQCr15zzb-21">
          <mxGeometry relative="1" as="geometry">
            <mxPoint x="410" y="820" as="targetPoint" />
          </mxGeometry>
        </mxCell>
        <mxCell id="DKY8X3DPb_3WQCr15zzb-19" value="i:=1" style="rounded=0;whiteSpace=wrap;html=1;" vertex="1" parent="1">
          <mxGeometry x="340" y="760" width="140" height="40" as="geometry" />
        </mxCell>
        <mxCell id="DKY8X3DPb_3WQCr15zzb-23" style="edgeStyle=orthogonalEdgeStyle;rounded=0;orthogonalLoop=1;jettySize=auto;html=1;" edge="1" parent="1" source="DKY8X3DPb_3WQCr15zzb-21" target="DKY8X3DPb_3WQCr15zzb-24">
          <mxGeometry relative="1" as="geometry">
            <mxPoint x="410" y="890" as="targetPoint" />
          </mxGeometry>
        </mxCell>
        <mxCell id="DKY8X3DPb_3WQCr15zzb-21" value="Цикл 3&lt;div&gt;i&amp;gt;9&lt;/div&gt;" style="shape=loopLimit;whiteSpace=wrap;html=1;" vertex="1" parent="1">
          <mxGeometry x="340" y="820" width="140" height="50" as="geometry" />
        </mxCell>
        <mxCell id="DKY8X3DPb_3WQCr15zzb-25" style="edgeStyle=orthogonalEdgeStyle;rounded=0;orthogonalLoop=1;jettySize=auto;html=1;" edge="1" parent="1" source="DKY8X3DPb_3WQCr15zzb-24" target="DKY8X3DPb_3WQCr15zzb-27">
          <mxGeometry relative="1" as="geometry">
            <mxPoint x="410" y="960" as="targetPoint" />
          </mxGeometry>
        </mxCell>
        <mxCell id="DKY8X3DPb_3WQCr15zzb-24" value="count[i] := count[i] + count[i - 1]&lt;div&gt;i+=1&lt;/div&gt;" style="rounded=0;whiteSpace=wrap;html=1;" vertex="1" parent="1">
          <mxGeometry x="340" y="890" width="140" height="50" as="geometry" />
        </mxCell>
        <mxCell id="XjyOQNDf8F_FNPoNaHeI-8" style="edgeStyle=orthogonalEdgeStyle;rounded=0;orthogonalLoop=1;jettySize=auto;html=1;entryX=0.5;entryY=0;entryDx=0;entryDy=0;" edge="1" parent="1" source="DKY8X3DPb_3WQCr15zzb-27" target="XjyOQNDf8F_FNPoNaHeI-11">
          <mxGeometry relative="1" as="geometry">
            <mxPoint x="410" y="1060" as="targetPoint" />
          </mxGeometry>
        </mxCell>
        <mxCell id="DKY8X3DPb_3WQCr15zzb-27" value="Цикл 3" style="shape=loopLimit;whiteSpace=wrap;html=1;direction=west;" vertex="1" parent="1">
          <mxGeometry x="340" y="960" width="140" height="50" as="geometry" />
        </mxCell>
        <mxCell id="XjyOQNDf8F_FNPoNaHeI-1" style="edgeStyle=orthogonalEdgeStyle;rounded=0;orthogonalLoop=1;jettySize=auto;html=1;" edge="1" parent="1" source="DKY8X3DPb_3WQCr15zzb-29" target="XjyOQNDf8F_FNPoNaHeI-2">
          <mxGeometry relative="1" as="geometry">
            <mxPoint x="590" y="820" as="targetPoint" />
          </mxGeometry>
        </mxCell>
        <mxCell id="DKY8X3DPb_3WQCr15zzb-29" value="i:=8" style="rounded=0;whiteSpace=wrap;html=1;" vertex="1" parent="1">
          <mxGeometry x="520" y="760" width="140" height="40" as="geometry" />
        </mxCell>
        <mxCell id="XjyOQNDf8F_FNPoNaHeI-3" style="edgeStyle=orthogonalEdgeStyle;rounded=0;orthogonalLoop=1;jettySize=auto;html=1;" edge="1" parent="1" source="XjyOQNDf8F_FNPoNaHeI-2" target="XjyOQNDf8F_FNPoNaHeI-4">
          <mxGeometry relative="1" as="geometry">
            <mxPoint x="590" y="890" as="targetPoint" />
          </mxGeometry>
        </mxCell>
        <mxCell id="XjyOQNDf8F_FNPoNaHeI-2" value="Цикл 4&lt;div&gt;i&amp;lt;0&lt;/div&gt;" style="shape=loopLimit;whiteSpace=wrap;html=1;" vertex="1" parent="1">
          <mxGeometry x="520" y="820" width="140" height="50" as="geometry" />
        </mxCell>
        <mxCell id="XjyOQNDf8F_FNPoNaHeI-5" style="edgeStyle=orthogonalEdgeStyle;rounded=0;orthogonalLoop=1;jettySize=auto;html=1;" edge="1" parent="1" source="XjyOQNDf8F_FNPoNaHeI-4" target="XjyOQNDf8F_FNPoNaHeI-6">
          <mxGeometry relative="1" as="geometry">
            <mxPoint x="590" y="960" as="targetPoint" />
          </mxGeometry>
        </mxCell>
        <mxCell id="XjyOQNDf8F_FNPoNaHeI-4" value="count[i] := count[i] + count[i + 1]&lt;div&gt;i-=1&lt;/div&gt;" style="rounded=0;whiteSpace=wrap;html=1;" vertex="1" parent="1">
          <mxGeometry x="520" y="890" width="140" height="50" as="geometry" />
        </mxCell>
        <mxCell id="XjyOQNDf8F_FNPoNaHeI-7" style="edgeStyle=orthogonalEdgeStyle;rounded=0;orthogonalLoop=1;jettySize=auto;html=1;entryX=0.5;entryY=0;entryDx=0;entryDy=0;" edge="1" parent="1" source="XjyOQNDf8F_FNPoNaHeI-6" target="XjyOQNDf8F_FNPoNaHeI-11">
          <mxGeometry relative="1" as="geometry">
            <mxPoint x="411" y="1040" as="targetPoint" />
            <Array as="points">
              <mxPoint x="590" y="1030" />
              <mxPoint x="411" y="1030" />
              <mxPoint x="411" y="1070" />
            </Array>
          </mxGeometry>
        </mxCell>
        <mxCell id="XjyOQNDf8F_FNPoNaHeI-6" value="Цикл 4" style="shape=loopLimit;whiteSpace=wrap;html=1;direction=west;" vertex="1" parent="1">
          <mxGeometry x="520" y="960" width="140" height="50" as="geometry" />
        </mxCell>
        <mxCell id="XjyOQNDf8F_FNPoNaHeI-12" style="edgeStyle=orthogonalEdgeStyle;rounded=0;orthogonalLoop=1;jettySize=auto;html=1;" edge="1" parent="1" source="XjyOQNDf8F_FNPoNaHeI-11" target="XjyOQNDf8F_FNPoNaHeI-13">
          <mxGeometry relative="1" as="geometry">
            <mxPoint x="410" y="1170" as="targetPoint" />
          </mxGeometry>
        </mxCell>
        <mxCell id="XjyOQNDf8F_FNPoNaHeI-11" value="i:=n" style="rounded=0;whiteSpace=wrap;html=1;" vertex="1" parent="1">
          <mxGeometry x="340" y="1050" width="140" height="41" as="geometry" />
        </mxCell>
        <mxCell id="XjyOQNDf8F_FNPoNaHeI-15" style="edgeStyle=orthogonalEdgeStyle;rounded=0;orthogonalLoop=1;jettySize=auto;html=1;" edge="1" parent="1" source="XjyOQNDf8F_FNPoNaHeI-13" target="XjyOQNDf8F_FNPoNaHeI-16">
          <mxGeometry relative="1" as="geometry">
            <mxPoint x="410" y="1190" as="targetPoint" />
          </mxGeometry>
        </mxCell>
        <mxCell id="XjyOQNDf8F_FNPoNaHeI-13" value="Цикл 5&lt;div&gt;i&amp;lt;1&lt;/div&gt;" style="shape=loopLimit;whiteSpace=wrap;html=1;" vertex="1" parent="1">
          <mxGeometry x="340" y="1110" width="140" height="51" as="geometry" />
        </mxCell>
        <mxCell id="XjyOQNDf8F_FNPoNaHeI-17" style="edgeStyle=orthogonalEdgeStyle;rounded=0;orthogonalLoop=1;jettySize=auto;html=1;" edge="1" parent="1" source="XjyOQNDf8F_FNPoNaHeI-16" target="XjyOQNDf8F_FNPoNaHeI-18">
          <mxGeometry relative="1" as="geometry">
            <mxPoint x="410" y="1240" as="targetPoint" />
          </mxGeometry>
        </mxCell>
        <mxCell id="XjyOQNDf8F_FNPoNaHeI-16" value="output[count[(arr[i] div exp) mod 10]] := arr[i]" style="rounded=0;whiteSpace=wrap;html=1;" vertex="1" parent="1">
          <mxGeometry x="340" y="1180" width="140" height="40" as="geometry" />
        </mxCell>
        <mxCell id="XjyOQNDf8F_FNPoNaHeI-19" style="edgeStyle=orthogonalEdgeStyle;rounded=0;orthogonalLoop=1;jettySize=auto;html=1;" edge="1" parent="1" source="XjyOQNDf8F_FNPoNaHeI-18" target="XjyOQNDf8F_FNPoNaHeI-20">
          <mxGeometry relative="1" as="geometry">
            <mxPoint x="410" y="1300" as="targetPoint" />
          </mxGeometry>
        </mxCell>
        <mxCell id="XjyOQNDf8F_FNPoNaHeI-18" value="count[(arr[i] div exp) mod 10] := count[(arr[i] div exp) mod 10] - 1" style="rounded=0;whiteSpace=wrap;html=1;" vertex="1" parent="1">
          <mxGeometry x="340" y="1240" width="140" height="40" as="geometry" />
        </mxCell>
        <mxCell id="XjyOQNDf8F_FNPoNaHeI-21" style="edgeStyle=orthogonalEdgeStyle;rounded=0;orthogonalLoop=1;jettySize=auto;html=1;" edge="1" parent="1" source="XjyOQNDf8F_FNPoNaHeI-20" target="XjyOQNDf8F_FNPoNaHeI-22">
          <mxGeometry relative="1" as="geometry">
            <mxPoint x="410" y="1360" as="targetPoint" />
          </mxGeometry>
        </mxCell>
        <mxCell id="XjyOQNDf8F_FNPoNaHeI-20" value="i-=1" style="rounded=0;whiteSpace=wrap;html=1;" vertex="1" parent="1">
          <mxGeometry x="340" y="1300" width="140" height="40" as="geometry" />
        </mxCell>
        <mxCell id="XjyOQNDf8F_FNPoNaHeI-23" style="edgeStyle=orthogonalEdgeStyle;rounded=0;orthogonalLoop=1;jettySize=auto;html=1;" edge="1" parent="1" source="XjyOQNDf8F_FNPoNaHeI-22" target="XjyOQNDf8F_FNPoNaHeI-24">
          <mxGeometry relative="1" as="geometry">
            <mxPoint x="410" y="1440" as="targetPoint" />
          </mxGeometry>
        </mxCell>
        <mxCell id="XjyOQNDf8F_FNPoNaHeI-22" value="Цикл 5" style="shape=loopLimit;whiteSpace=wrap;html=1;direction=west;" vertex="1" parent="1">
          <mxGeometry x="340" y="1360" width="140" height="50" as="geometry" />
        </mxCell>
        <mxCell id="XjyOQNDf8F_FNPoNaHeI-24" value="конец&lt;div&gt;CountingSort&lt;/div&gt;" style="ellipse;whiteSpace=wrap;html=1;" vertex="1" parent="1">
          <mxGeometry x="335" y="1440" width="150" height="50" as="geometry" />
        </mxCell>
      </root>
    </mxGraphModel>
  </diagram>
</mxfile>
